<svg id="Layer_1" data-name="Layer 1" xmlns="http://www.w3.org/2000/svg" viewBox="0 0 39.64 36.12"><defs><style>.cls-1{fill:#fff;}</style></defs><title>Untitled-2</title><path class="cls-1" d="M553.14,533.77,533.92,556.7a2.35,2.35,0,0,1-1.67.81l-9.61.63a1.16,1.16,0,0,1-1.2-1l-1.06-9.58a2.38,2.38,0,0,1,.51-1.78l12.77-15.23a.85.85,0,0,1,1.19,0l4.76,4a.87.87,0,0,0,1.22,0l1.26-1.51a.86.86,0,0,0-.17-1.21l-4.75-4a.84.84,0,0,1-.17-1.18l3.11-3.71a2.63,2.63,0,0,1,3.71-.13l8.81,7.39A2.62,2.62,0,0,1,553.14,533.77Z" transform="translate(-520.36 -522.02)"/><rect class="cls-1" x="19.64" y="29.98" width="20" height="6" rx="3" ry="3"/></svg>